<?xml version="1.0" encoding="UTF-8"?>
<svg xmlns="http://www.w3.org/2000/svg" viewBox="0 0 512 512" width="512" height="512"><g id="solid" fill="#a9e5f0"><path d="M256,64C150.131,64,64,150.131,64,256a191.318,191.318,0,0,0,52.691,131.987,97.8,97.8,0,0,1,52.756-59.251l19.775-8.988a104,104,0,1,1,133.556,0l19.775,8.988a98.13,98.13,0,0,1,52.753,59.254A191.315,191.315,0,0,0,448,256C448,150.131,361.869,64,256,64Zm-38,54a10,10,0,1,1,10-10A10,10,0,0,1,218,118Zm38,2a12,12,0,1,1,12-12A12,12,0,0,1,256,120Zm38-2a10,10,0,1,1,10-10A10,10,0,0,1,294,118Zm117.774,74.457a8,8,0,0,1,10.209,4.877A175.565,175.565,0,0,1,432,256a177.5,177.5,0,0,1-3.188,33.515,8,8,0,0,1-15.711-3.03A161.446,161.446,0,0,0,416,256a159.608,159.608,0,0,0-9.1-53.334A8,8,0,0,1,411.774,192.457ZM401.215,323.272c.964-2.077,1.9-4.2,2.768-6.322a8,8,0,0,1,14.792,6.1c-.961,2.331-1.986,4.672-3.046,6.957a8,8,0,0,1-14.514-6.735Z"/><path d="M335.932,343.3l-32.265-14.666a8,8,0,0,1-.943-14.059,88,88,0,1,0-93.448,0,8,8,0,0,1-.943,14.059L176.068,343.3a81.831,81.831,0,0,0-46.211,57.321,191.623,191.623,0,0,0,252.289,0A82.083,82.083,0,0,0,335.932,343.3ZM216,228a12,12,0,1,1,12,12A12,12,0,0,1,216,228Zm69.657,49.657a41.988,41.988,0,0,1-59.314,0,8,8,0,0,1,11.314-11.314,25.969,25.969,0,0,0,36.686,0,8,8,0,0,1,11.314,11.314ZM284,240a12,12,0,1,1,12-12A12,12,0,0,1,284,240Z"/><path d="M256,32A224,224,0,0,0,97.608,414.392,224,224,0,0,0,414.392,97.608,222.533,222.533,0,0,0,256,32Zm0,432C141.309,464,48,370.691,48,256S141.309,48,256,48s208,93.309,208,208S370.691,464,256,464Z"/></g></svg>
