<svg xmlns="http://www.w3.org/2000/svg" width="550" height="550" viewBox="0 0 550 550">
  <defs>
    <style>
      .cls-1 {
        fill: #a9e5f0;
        fill-rule: evenodd;
      }
    </style>
  </defs>
  <path id="Arrow_Icon_12_-_Shapes4FREE_1" data-name="Arrow Icon #12 - Shapes4FREE 1" class="cls-1" d="M277.5,13C131.973,13,14,130.973,14,276.5S131.973,540,277.5,540,541,422.027,541,276.5,423.027,13,277.5,13ZM407.509,284.893a40.527,40.527,0,0,1-57.326,0l-32.145-32.147V398.115a40.538,40.538,0,1,1-81.076,0V252.746l-32.145,32.147a40.535,40.535,0,1,1-57.326-57.325l101.322-101.32a40.76,40.76,0,0,1,6.214-5.081c0.963-.645,2.007-1.083,3.008-1.634a23.716,23.716,0,0,1,8.015-3.344c1.173-.349,2.3-0.8,3.515-1.042a40.6,40.6,0,0,1,15.87,0c1.217,0.241,2.341.693,3.515,1.042a23.716,23.716,0,0,1,8.015,3.344c1,0.551,2.045.989,3.007,1.634a40.72,40.72,0,0,1,6.215,5.081l101.322,101.32A40.527,40.527,0,0,1,407.509,284.893Z"/>
</svg>