<svg xmlns="http://www.w3.org/2000/svg" width="100" height="90" viewBox="0 0 100 90">
  <defs>
    <style>
      .cls-1 {
        fill: #a9e5f0;
        fill-rule: evenodd;
      }
    </style>
  </defs>
  <path id="Forme_2_1" data-name="Forme 2 1" class="cls-1" d="M75.188,76.985V89.538c-10.529-8.526-14.74-17.286-23.223-25.107-6.88,8.368-17.848,16.948-25.8,25.107V76.985H8.1V74.474L26.162,49.367c-6.88,1.674-6.021,3.348-12.9,5.021-3.44.628-3.87,0.418-7.741,0C-1.4,40.634-.143,9.26,8.427,1.92c5.725-2.173,27.852,15.007,30.637,12.3,5.856-8.627,17.786-6.964,23.222,0C72.247,9.857,84.483-2.023,95.83,1.665c4.946,16.945,3.225,37.871,0,52.724-7.74,2.3-12.042-3.348-18.062-5.021,5.16,9.2,15.912,16.948,15.482,27.617H75.188Z"/>
</svg>
