<svg height="512" viewBox="0 0 512 512" width="512" xmlns="http://www.w3.org/2000/svg" fill="#a9e5f0"><g id="solid"><path d="m168 376h176v-128h-176zm49-105.423a8 8 0 0 1 11.969-6.946l70 40a8 8 0 0 1 0 13.892l-70 40a8 8 0 0 1 -11.969-6.946z"/><path d="m233 284.362v52.43l45.875-26.215z"/><circle cx="192" cy="177.423" r="24"/><path d="m392 273.677-32 10.666v44.469l32 10.666z"/><path d="m256.2 480a223.8 223.8 0 0 0 158.249-382.058 223.8 223.8 0 1 0 -316.507 316.507 222.335 222.335 0 0 0 158.258 65.551zm0-431.608c114.583 0 207.8 93.22 207.8 207.8s-93.221 207.808-207.8 207.808-207.809-93.221-207.809-207.8 93.221-207.808 207.809-207.808z"/><path d="m192.711 232a55.032 55.032 0 0 0 20.344-3.86 8 8 0 0 1 10.095 3.86h51.2a71.174 71.174 0 0 1 -26.35-55.289 55.289 55.289 0 1 0 -55.289 55.289zm-.711-94.577a40 40 0 1 1 -40 40 40.045 40.045 0 0 1 40-40z"/><circle cx="320" cy="177.423" r="24"/><path d="m256.2 448c105.757 0 191.8-86.043 191.8-191.8s-86.043-191.8-191.8-191.8-191.8 86.043-191.8 191.8 86.034 191.8 191.8 191.8zm-40.2-24h-16v-16h16zm32 0h-16v-16h16zm32 0h-16v-16h16zm32 0h-16v-16h16zm-119.289-318.577a71.369 71.369 0 0 1 71.289 71.288 55.263 55.263 0 1 0 26.718-47.345 8 8 0 1 1 -8.282-13.689 71.279 71.279 0 0 1 76.457 120.277 7.951 7.951 0 0 1 1.107 4.046v27.477l37.47-12.49a8 8 0 0 1 10.53 7.59v88a8 8 0 0 1 -10.53 7.59l-37.47-12.49v38.323a8 8 0 0 1 -8 8h-192a8 8 0 0 1 -8-8v-144a7.951 7.951 0 0 1 1.107-4.046 71.267 71.267 0 0 1 39.6-130.531zm87.289 72a40 40 0 1 1 40 40 40.045 40.045 0 0 1 -40-40z"/></g></svg>