<svg xmlns="http://www.w3.org/2000/svg" width="427" height="428" viewBox="0 0 427 428">
  <defs>
    <style>
      .cls-1 {
        fill: #fff;
      }

      .cls-1, .cls-2, .cls-3, .cls-4 {
        fill-rule: evenodd;
      }

      .cls-2 {
        fill: #a9e5f0;
      }

      .cls-3 {
        fill: #158c88;
      }

      .cls-4 {
        fill: #60c6be;
      }
    </style>
  </defs>
  <path id="Forme_1_1" data-name="Forme 1 1" class="cls-1" d="M3,235L110,76l26.225-1.629,41.138-61.513,36.354,35.883,17.221-11.277,55.488,75.867L312,86,415,239H369L209,422,70,236Z"/>
  <path id="P_1" data-name="P 1" class="cls-2" d="M157.409,326.113l22.727-2.269q0.569-85.1,1.137-170.213c-10.054-.267-20.008-1.78-26.137-5.674L154,145.688q0.568-4.539,1.136-9.078l11.364-3.4,3.409,10.212c22.951-1.346,34.07-13.034,52.273-18.156,49.893-14.037,74.286,20.051,80.682,55.6,7.27,40.416-22.512,76.315-44.319,89.646-14.7,8.985-40.076,11.229-47.727-5.674-2.192-3.493-3.345-11.234-1.136-15.887,1.836-3.876,1.85-3.8,5.682-5.673h11.363c-5.188,9.172-8.136,17.626,4.546,21.56,58.45,24.724,71.123-160.357-3.409-131.631-66.153,25.5,15.749,208.605-62.5,208.794l-7.955-5.674V326.113Z"/>
  <path id="V_PiVee_1" data-name="V PiVee 1" class="cls-3" d="M0,234h73.07L207.791,414.459,365.347,234H427v9.137H372.2L207.791,428.164,63.935,243.137H0V234Z"/>
  <path id="Glacier_1" data-name="Glacier 1" class="cls-4" d="M154.257,24.635C157.237,24.635,171.4.448,172.141,0c12.667,13.436,27.574,26.876,40.241,40.313,7.348-9.032,10.6-10.038,17.885-17.917,17.883,26.872,42.478,55.992,60.361,82.864,1.341-.6,6.707-9.7,8.943-11.2,3.725-6.718,7.452-8.959,11.178-15.677C316.087,85.119,425.354,213.448,427,215H397.937c-29.805-35.83-59.619-69.431-89.424-105.26l-20.12,15.677L232.5,47.031,214.618,67.188h-4.471l-35.77-33.594-4.471,2.24C157.239,55.988,142.332,76.148,129.665,96.3c-1.375-.021-13.768-8.959-15.649-8.958C113.034,89.5,22.088,208.86,20.12,210.521c0-.747-17.885.3-20.12,0L6.707,203.8,111.78,55.99c8.832,9.321,12.667,13.774,15.649,15.677C139.351,50.766,142.334,45.536,154.257,24.635Z"/>
</svg>
