<svg xmlns="http://www.w3.org/2000/svg" width="136" height="134" viewBox="0 0 136 134">
  <defs>
    <style>
      .cls-1 {
        fill: #fff;
        fill-rule: evenodd;
      }
    </style>
  </defs>
  <path id="icone_recherche" data-name="icone recherche" class="cls-1" d="M795,171c-37.556,0-68-30-68-67s30.445-67,68-67,68,30,68,67S832.556,171,795,171Zm35.783-42.644-14.9-14.679a33.781,33.781,0,0,0,5.354-18.287c0-18.954-15.594-34.318-34.83-34.318s-34.83,15.365-34.83,34.318,15.594,34.318,34.83,34.318a35.034,35.034,0,0,0,18.466-5.218l14.915,14.7a6.161,6.161,0,0,0,8.622,0l2.371-2.336A5.945,5.945,0,0,0,830.783,128.357Zm-44.374-8.146A24.823,24.823,0,1,1,811.6,95.391,25.007,25.007,0,0,1,786.409,120.211Z" transform="translate(-727 -37)"/>
</svg>
