<svg xmlns="http://www.w3.org/2000/svg" width="256" height="256" viewBox="0 0 256 256">
  <defs>
    <style>
      .cls-1 {
        fill: #a9e5f0;
        fill-rule: evenodd;
      }
    </style>
  </defs>
  <path id="Home_-_www.Shapes4FREE.com_1" data-name="Home - www.Shapes4FREE.com 1" class="cls-1" d="M131,254A124,124,0,1,1,255,130,124,124,0,0,1,131,254Zm71.136-134-60.9-60.9a13.635,13.635,0,0,0-19.283,0L106.515,74.532V58.984H81.883v40.18L61.047,120a13.635,13.635,0,0,0,0,19.283l11.088,11.088,10.4-10.4v51.293A13.635,13.635,0,0,0,96.173,204.9h21.456V169.989h27.928V204.9h21.52a13.635,13.635,0,0,0,13.635-13.635v-50.9l10.176,10.176,11.249-11.249A13.635,13.635,0,0,0,202.137,120Z"/>
</svg>
